<?xml version="1.0" encoding="UTF-8"?>
<svg width="999px" height="683px" viewBox="0 0 999 683" version="1.1" xmlns="http://www.w3.org/2000/svg" xmlns:xlink="http://www.w3.org/1999/xlink">
    <!-- Generator: Sketch 58 (84663) - https://sketch.com -->
    <title>Vector</title>
    <desc>Created with Sketch.</desc>
    <g id="Artboard" stroke="none" stroke-width="1" fill="none" fill-rule="evenodd">
        <g id="Home-Final" transform="translate(-28.000000, -1401.000000)" fill="#F3F3F3">
            <path d="M979,1888 L783,2084 L783,2060.48994 L955.48994,1888 L979,1888 Z M583,1401 L28,1956 L28,1889.42815 L516.428145,1401 L583,1401 Z M1027,1760 L929,1858 L831,1956 L831,1944.24497 L917.24497,1858 L917.246,1857.999 L1015.24497,1760 L1027,1760 Z M306,1581 L110,1777 L110,1753.48994 L282.48994,1581 L306,1581 Z M354,1401 L256,1499 L158,1597 L158,1585.24497 L244.24497,1499 L244.246,1498.999 L342.24497,1401 L354,1401 Z" id="Vector"></path>
        </g>
    </g>
</svg>